/* XPM */
static char *stub[] = {
/* width height num_colors chars_per_pixel */
"    16    16       16            1",
/* colors */
"` c #000000",
". c #800000",
"# c #008000",
"a c #808000",
"b c #000080",
"c c #800080",
"d c #008080",
"e c #808080",
"f c None",
"g c #ff0000",
"h c #00ff00",
"i c #ffff00",
"j c #0000ff",
"k c #ff00ff",
"l c #00ffff",
"m c #ffffff",
/* pixels */
"ffffffffffffffff",
"f`````````ffffff",
"f`mmmmmmm`ffffff",
"f`mgggggm``````f",
"f`mmmmmmm`mmmm`f",
"f`meemeem`gggm`f",
"f`mmmmmmm`mmmm`f",
"f`meeeeem`meem`f",
"f`mmmmmmm`mmmm`f",
"f`meemeem`eeem`f",
"f`mmmmmmm`mmmm`f",
"f`````````meem`f",
"ffffff`mmmmmmm`f",
"ffffff`````````f",
"ffffffffffffffff",
"ffffffffffffffff"
};
